<svg xmlns="http://www.w3.org/2000/svg" xmlns:xlink="http://www.w3.org/1999/xlink" width="281" zoomAndPan="magnify" viewBox="0 0 210.75 116.999995" height="156" preserveAspectRatio="xMidYMid meet" version="1.0"><defs><filter x="0%" y="0%" width="100%" height="100%" id="0010d341c4"><feColorMatrix values="0 0 0 0 1 0 0 0 0 1 0 0 0 0 1 0 0 0 1 0" color-interpolation-filters="sRGB"/></filter><g/><clipPath id="aadb8bf035"><path d="M 0 0.0703125 L 210.5 0.0703125 L 210.5 116.929688 L 0 116.929688 Z M 0 0.0703125 " clip-rule="nonzero"/></clipPath><mask id="ebce571282"><g filter="url(#0010d341c4)"><rect x="-21.075" width="252.9" fill="#000000" y="-11.7" height="140.399994" fill-opacity="0.498"/></g></mask><clipPath id="75e947c242"><path d="M 2 0.0703125 L 208 0.0703125 L 208 116.929688 L 2 116.929688 Z M 2 0.0703125 " clip-rule="nonzero"/></clipPath><clipPath id="f9a2c822c9"><rect x="0" width="211" y="0" height="117"/></clipPath><clipPath id="99be670505"><path d="M 17.550781 6.964844 L 71.421875 6.964844 L 71.421875 60.835938 L 17.550781 60.835938 Z M 17.550781 6.964844 " clip-rule="nonzero"/></clipPath><clipPath id="b633632f0c"><path d="M 116.582031 54.980469 L 170.453125 54.980469 L 170.453125 108.847656 L 116.582031 108.847656 Z M 116.582031 54.980469 " clip-rule="nonzero"/></clipPath><clipPath id="03a8f8411c"><path d="M 68 21.472656 L 103 21.472656 L 103 55.753906 L 68 55.753906 Z M 68 21.472656 " clip-rule="nonzero"/></clipPath></defs><g clip-path="url(#aadb8bf035)"><g mask="url(#ebce571282)"><g transform="matrix(1, 0, 0, 1, 0, -0.000000000000018277)"><g clip-path="url(#f9a2c822c9)"><g clip-path="url(#75e947c242)"><path fill="#071d2a" d="M 105.035156 0.570312 C 65.566406 0.570312 29.246094 18.648438 5.386719 50.160156 C 1.664062 55.066406 1.664062 61.921875 5.382812 66.824219 C 29.246094 98.339844 65.566406 116.417969 105.035156 116.417969 C 144.5 116.417969 180.820312 98.339844 204.679688 66.828125 C 208.402344 61.921875 208.402344 55.074219 204.683594 50.164062 C 180.820312 18.648438 144.5 0.570312 105.035156 0.570312 Z M 193.816406 58.515625 C 172.554688 86.59375 140.195312 102.695312 105.035156 102.695312 C 69.871094 102.695312 37.511719 86.59375 16.253906 58.472656 C 37.511719 30.394531 69.871094 14.292969 105.035156 14.292969 C 140.195312 14.292969 172.554688 30.394531 193.816406 58.472656 C 193.816406 58.476562 193.816406 58.511719 193.816406 58.515625 Z M 193.816406 58.515625 " fill-opacity="1" fill-rule="nonzero"/></g><path fill="#071d2a" d="M 105.035156 18.328125 C 82.988281 18.328125 65.058594 36.347656 65.058594 58.496094 C 65.058594 80.640625 82.988281 98.660156 105.035156 98.660156 C 127.078125 98.660156 145.007812 80.640625 145.007812 58.496094 C 145.007812 36.347656 127.078125 18.328125 105.035156 18.328125 Z M 105.035156 84.9375 C 90.523438 84.9375 78.714844 73.074219 78.714844 58.496094 C 78.714844 43.914062 90.523438 32.050781 105.035156 32.050781 C 119.542969 32.050781 131.351562 43.914062 131.351562 58.496094 C 131.351562 73.074219 119.542969 84.9375 105.035156 84.9375 Z M 105.035156 84.9375 " fill-opacity="1" fill-rule="nonzero"/></g></g></g></g><g fill="#afc1d0" fill-opacity="1"><g transform="translate(28.996582, 58.638253)"><g><path d="M 16.84375 0.546875 C 13.832031 0.546875 11.097656 0.0234375 8.640625 -1.015625 C 6.191406 -2.066406 4.140625 -3.457031 2.484375 -5.1875 L 5.421875 -8.234375 C 8.585938 -5.023438 12.414062 -3.421875 16.90625 -3.421875 C 19.40625 -3.421875 21.316406 -3.925781 22.640625 -4.9375 C 23.972656 -5.957031 24.640625 -7.347656 24.640625 -9.109375 C 24.640625 -10.441406 24.378906 -11.53125 23.859375 -12.375 C 23.347656 -13.21875 22.425781 -14 21.09375 -14.71875 C 19.769531 -15.4375 17.75 -16.296875 15.03125 -17.296875 C 10.976562 -18.734375 8.039062 -20.351562 6.21875 -22.15625 C 4.394531 -23.957031 3.484375 -26.257812 3.484375 -29.0625 C 3.484375 -32.226562 4.585938 -34.710938 6.796875 -36.515625 C 9.003906 -38.328125 12.0625 -39.234375 15.96875 -39.234375 C 18.363281 -39.234375 20.597656 -38.875 22.671875 -38.15625 C 24.753906 -37.4375 26.570312 -36.445312 28.125 -35.1875 L 25.578125 -31.828125 C 24.179688 -32.929688 22.734375 -33.765625 21.234375 -34.328125 C 19.742188 -34.898438 17.988281 -35.1875 15.96875 -35.1875 C 10.882812 -35.1875 8.34375 -33.160156 8.34375 -29.109375 C 8.34375 -27.753906 8.671875 -26.632812 9.328125 -25.75 C 9.992188 -24.863281 10.976562 -24.070312 12.28125 -23.375 C 13.59375 -22.675781 15.484375 -21.882812 17.953125 -21 C 20.785156 -19.96875 23.019531 -18.925781 24.65625 -17.875 C 26.300781 -16.820312 27.519531 -15.601562 28.3125 -14.21875 C 29.101562 -12.84375 29.5 -11.140625 29.5 -9.109375 C 29.5 -6.171875 28.382812 -3.828125 26.15625 -2.078125 C 23.925781 -0.328125 20.820312 0.546875 16.84375 0.546875 Z M 16.84375 0.546875 "/></g></g></g><g fill="#afc1d0" fill-opacity="1"><g transform="translate(60.978965, 58.638253)"><g/></g></g><g fill="#afc1d0" fill-opacity="1"><g transform="translate(75.233169, 58.638253)"><g/></g></g><g fill="#afc1d0" fill-opacity="1"><g transform="translate(89.487373, 58.638253)"><g/></g></g><g fill="#afc1d0" fill-opacity="1"><g transform="translate(103.728846, 58.638253)"><g><path d="M 6.578125 -22.921875 L 1.9375 -22.921875 L 2.921875 -26.796875 L 6.578125 -26.796875 L 6.578125 -32.546875 C 6.578125 -35.085938 7.367188 -37.070312 8.953125 -38.5 C 10.535156 -39.9375 12.539062 -40.65625 14.96875 -40.65625 C 15.75 -40.65625 16.597656 -40.5625 17.515625 -40.375 C 18.429688 -40.195312 19.222656 -39.941406 19.890625 -39.609375 L 19 -36.015625 C 17.863281 -36.492188 16.671875 -36.734375 15.421875 -36.734375 C 12.617188 -36.734375 11.21875 -35.316406 11.21875 -32.484375 L 11.21875 -26.796875 L 19 -26.796875 L 18.015625 -22.921875 L 11.21875 -22.921875 L 11.21875 0 L 6.578125 0 Z M 6.578125 -22.921875 "/></g></g></g><g fill="#afc1d0" fill-opacity="1"><g transform="translate(125.552144, 58.638253)"><g><path d="M 13.484375 0.546875 C 11.160156 0.546875 9.4375 -0.0859375 8.3125 -1.359375 C 7.1875 -2.628906 6.625 -4.441406 6.625 -6.796875 L 6.625 -22.921875 L 1.9375 -22.921875 L 2.921875 -26.796875 L 6.6875 -26.796875 L 6.6875 -33.59375 L 11.15625 -35.640625 L 11.15625 -26.796875 L 18.0625 -26.796875 L 17.125 -22.921875 L 11.265625 -22.921875 L 11.265625 -6.734375 C 11.265625 -5.453125 11.476562 -4.550781 11.90625 -4.03125 C 12.332031 -3.519531 13.097656 -3.265625 14.203125 -3.265625 C 15.378906 -3.265625 16.410156 -3.484375 17.296875 -3.921875 L 18.453125 -0.4375 C 17.898438 -0.1875 17.144531 0.0351562 16.1875 0.234375 C 15.226562 0.441406 14.328125 0.546875 13.484375 0.546875 Z M 13.484375 0.546875 "/></g></g></g><g fill="#afc1d0" fill-opacity="1"><g transform="translate(74.913057, 97.431107)"><g><path d="M 2.984375 -24.953125 C 2.984375 -25.410156 2.914062 -25.765625 2.78125 -26.015625 C 2.644531 -26.265625 2.46875 -26.5 2.25 -26.71875 C 2.082031 -26.875 1.960938 -27.015625 1.890625 -27.140625 C 1.828125 -27.265625 1.828125 -27.421875 1.890625 -27.609375 C 2.046875 -28.023438 2.300781 -28.429688 2.65625 -28.828125 C 3.019531 -29.222656 3.40625 -29.421875 3.8125 -29.421875 C 4.21875 -29.421875 4.640625 -29.171875 5.078125 -28.671875 L 19.21875 -28.671875 L 19.21875 -25.640625 L 6.515625 -25.640625 L 6.515625 -16.515625 L 15.765625 -16.515625 L 15.765625 -13.5625 L 6.515625 -13.5625 L 6.515625 -3.03125 L 19.578125 -3.03125 L 19.578125 0 L 2.984375 0 Z M 2.984375 -24.953125 "/></g></g></g><g fill="#afc1d0" fill-opacity="1"><g transform="translate(96.342776, 97.431107)"><g><path d="M 3.4375 6.5625 C 7.019531 5.25 9.234375 2.707031 10.078125 -1.0625 L 1.84375 -19.875 L 5.8125 -19.875 L 11.875 -4.671875 L 17.5 -19.875 L 21.421875 -19.875 L 13.28125 0.53125 C 12.320312 2.882812 11.171875 4.75 9.828125 6.125 C 8.492188 7.5 6.707031 8.597656 4.46875 9.421875 Z M 3.4375 6.5625 "/></g></g></g><g fill="#afc1d0" fill-opacity="1"><g transform="translate(119.616352, 97.431107)"><g><path d="M 11.640625 0.40625 C 9.617188 0.40625 7.867188 -0.015625 6.390625 -0.859375 C 4.910156 -1.703125 3.78125 -2.894531 3 -4.4375 C 2.226562 -5.988281 1.84375 -7.773438 1.84375 -9.796875 C 1.84375 -12.796875 2.609375 -15.289062 4.140625 -17.28125 C 5.671875 -19.28125 7.992188 -20.28125 11.109375 -20.28125 C 13.265625 -20.28125 15.035156 -19.773438 16.421875 -18.765625 C 17.816406 -17.753906 18.828125 -16.503906 19.453125 -15.015625 C 20.085938 -13.523438 20.40625 -12.015625 20.40625 -10.484375 C 20.40625 -9.117188 19.625 -8.4375 18.0625 -8.4375 L 5.328125 -8.4375 C 5.328125 -6.632812 5.882812 -5.191406 7 -4.109375 C 8.125 -3.035156 9.671875 -2.5 11.640625 -2.5 C 13.960938 -2.5 15.875 -3.179688 17.375 -4.546875 L 19.171875 -2.546875 C 18.296875 -1.609375 17.203125 -0.878906 15.890625 -0.359375 C 14.578125 0.148438 13.160156 0.40625 11.640625 0.40625 Z M 16.96875 -11.265625 C 16.96875 -13.015625 16.453125 -14.472656 15.421875 -15.640625 C 14.398438 -16.816406 12.960938 -17.40625 11.109375 -17.40625 C 9.847656 -17.40625 8.78125 -17.101562 7.90625 -16.5 C 7.03125 -15.90625 6.378906 -15.132812 5.953125 -14.1875 C 5.535156 -13.25 5.328125 -12.273438 5.328125 -11.265625 Z M 16.96875 -11.265625 "/></g></g></g><g fill="#afc1d0" fill-opacity="1"><g transform="translate(141.86557, 97.431107)"><g><path d="M 10.609375 0.40625 C 8.753906 0.40625 7.085938 0.117188 5.609375 -0.453125 C 4.140625 -1.023438 2.882812 -1.832031 1.84375 -2.875 L 3.9375 -5.125 C 4.726562 -4.269531 5.71875 -3.601562 6.90625 -3.125 C 8.09375 -2.65625 9.328125 -2.421875 10.609375 -2.421875 C 11.890625 -2.421875 12.867188 -2.625 13.546875 -3.03125 C 14.234375 -3.4375 14.578125 -4.050781 14.578125 -4.875 C 14.578125 -5.445312 14.453125 -5.910156 14.203125 -6.265625 C 13.960938 -6.617188 13.5 -6.972656 12.8125 -7.328125 C 12.132812 -7.679688 11.0625 -8.109375 9.59375 -8.609375 C 7.050781 -9.484375 5.242188 -10.367188 4.171875 -11.265625 C 3.109375 -12.171875 2.578125 -13.398438 2.578125 -14.953125 C 2.578125 -16.585938 3.21875 -17.882812 4.5 -18.84375 C 5.789062 -19.800781 7.609375 -20.28125 9.953125 -20.28125 C 11.316406 -20.28125 12.578125 -20.082031 13.734375 -19.6875 C 14.898438 -19.289062 15.921875 -18.78125 16.796875 -18.15625 L 15.484375 -15.6875 C 14.554688 -16.320312 13.65625 -16.773438 12.78125 -17.046875 C 11.90625 -17.316406 10.953125 -17.453125 9.921875 -17.453125 C 8.628906 -17.453125 7.65625 -17.222656 7 -16.765625 C 6.34375 -16.316406 6.015625 -15.710938 6.015625 -14.953125 C 6.015625 -14.347656 6.191406 -13.851562 6.546875 -13.46875 C 6.910156 -13.09375 7.390625 -12.765625 7.984375 -12.484375 C 8.585938 -12.210938 9.613281 -11.820312 11.0625 -11.3125 C 12.863281 -10.65625 14.25 -10.050781 15.21875 -9.5 C 16.1875 -8.957031 16.894531 -8.320312 17.34375 -7.59375 C 17.800781 -6.875 18.03125 -5.953125 18.03125 -4.828125 C 18.03125 -3.191406 17.378906 -1.910156 16.078125 -0.984375 C 14.785156 -0.0546875 12.960938 0.40625 10.609375 0.40625 Z M 10.609375 0.40625 "/></g></g></g><g clip-path="url(#99be670505)"><path fill="#1c3f60" d="M 61.902344 6.964844 L 17.550781 6.964844 L 17.550781 60.835938 L 21.980469 60.835938 L 21.980469 11.394531 L 71.421875 11.394531 L 71.421875 6.964844 L 61.902344 6.964844 " fill-opacity="1" fill-rule="nonzero"/></g><g clip-path="url(#b633632f0c)"><path fill="#1c3f60" d="M 126.101562 108.847656 L 170.453125 108.847656 L 170.453125 54.980469 L 166.023438 54.980469 L 166.023438 104.421875 L 116.582031 104.421875 L 116.582031 108.847656 L 126.101562 108.847656 " fill-opacity="1" fill-rule="nonzero"/></g><g clip-path="url(#03a8f8411c)"><path fill="#ffffff" d="M 69.121094 44.546875 L 69.132812 44.574219 L 69.132812 44.578125 C 69.625 45.867188 70.269531 47.082031 71.066406 48.21875 C 71.863281 49.351562 72.785156 50.378906 73.839844 51.292969 C 74.890625 52.210938 76.039062 52.988281 77.285156 53.632812 C 78.53125 54.273438 79.839844 54.761719 81.207031 55.09375 C 82.589844 55.433594 83.992188 55.605469 85.417969 55.601562 C 86.457031 55.601562 87.484375 55.511719 88.503906 55.332031 C 89.523438 55.152344 90.519531 54.886719 91.492188 54.535156 C 92.460938 54.179688 93.394531 53.746094 94.285156 53.230469 C 95.175781 52.714844 96.015625 52.125 96.800781 51.464844 C 97.582031 50.800781 98.300781 50.078125 98.953125 49.289062 C 99.601562 48.503906 100.175781 47.667969 100.675781 46.777344 C 101.171875 45.890625 101.585938 44.96875 101.914062 44.007812 C 102.242188 43.050781 102.484375 42.070312 102.632812 41.066406 C 102.78125 40.066406 102.835938 39.058594 102.800781 38.046875 C 102.765625 37.039062 102.640625 36.039062 102.421875 35.046875 C 102.203125 34.058594 101.898438 33.097656 101.503906 32.160156 C 101.109375 31.226562 100.632812 30.332031 100.074219 29.480469 C 99.515625 28.625 98.882812 27.828125 98.179688 27.085938 C 97.476562 26.34375 96.710938 25.667969 95.882812 25.0625 C 95.054688 24.453125 94.175781 23.921875 93.25 23.464844 C 92.324219 23.007812 91.367188 22.636719 90.371094 22.351562 L 90.339844 22.34375 C 90.332031 22.339844 90.320312 22.335938 90.308594 22.332031 C 88.714844 21.871094 87.085938 21.636719 85.417969 21.640625 C 84.71875 21.640625 84.023438 21.679688 83.328125 21.761719 C 82.636719 21.84375 81.949219 21.96875 81.269531 22.128906 C 80.589844 22.292969 79.925781 22.496094 79.269531 22.738281 C 78.617188 22.976562 77.980469 23.257812 77.359375 23.574219 C 76.738281 23.890625 76.140625 24.242188 75.566406 24.628906 C 74.988281 25.015625 74.441406 25.433594 73.914062 25.886719 C 73.390625 26.335938 72.894531 26.816406 72.429688 27.328125 C 71.964844 27.835938 71.535156 28.371094 71.136719 28.933594 C 70.734375 29.492188 70.375 30.074219 70.046875 30.679688 C 69.71875 31.28125 69.429688 31.902344 69.179688 32.539062 C 68.929688 33.175781 68.71875 33.828125 68.550781 34.488281 C 68.378906 35.152344 68.25 35.820312 68.164062 36.496094 C 68.074219 37.175781 68.03125 37.855469 68.027344 38.539062 C 68.023438 39.21875 68.0625 39.902344 68.140625 40.578125 C 68.222656 41.257812 68.34375 41.925781 68.507812 42.589844 C 68.671875 43.253906 68.875 43.90625 69.121094 44.546875 Z M 71.0625 45.054688 L 78.652344 45.054688 C 79.527344 45.9375 80.542969 46.621094 81.699219 47.105469 C 82.851562 47.59375 84.058594 47.84375 85.320312 47.855469 L 81.089844 53.445312 C 79.992188 53.144531 78.941406 52.726562 77.9375 52.203125 C 76.933594 51.675781 75.996094 51.050781 75.132812 50.324219 C 74.265625 49.601562 73.492188 48.792969 72.804688 47.90625 C 72.117188 47.015625 71.539062 46.066406 71.0625 45.054688 Z M 84.953125 30.949219 C 85.109375 30.941406 85.265625 30.9375 85.417969 30.9375 C 85.9375 30.9375 86.449219 30.988281 86.953125 31.085938 C 87.460938 31.1875 87.953125 31.332031 88.429688 31.527344 C 88.90625 31.71875 89.359375 31.957031 89.789062 32.238281 C 90.21875 32.515625 90.613281 32.835938 90.980469 33.191406 C 91.34375 33.550781 91.671875 33.9375 91.957031 34.355469 C 92.246094 34.773438 92.488281 35.21875 92.6875 35.683594 C 92.886719 36.148438 93.035156 36.628906 93.136719 37.121094 C 93.238281 37.617188 93.289062 38.117188 93.292969 38.621094 C 93.292969 38.996094 93.261719 39.367188 93.203125 39.738281 L 93.203125 39.746094 C 93.085938 40.539062 92.847656 41.292969 92.484375 42.015625 C 92.125 42.734375 91.65625 43.382812 91.085938 43.960938 C 90.515625 44.535156 89.867188 45.015625 89.144531 45.390625 C 88.421875 45.769531 87.652344 46.03125 86.847656 46.171875 C 86.375 46.265625 85.898438 46.308594 85.417969 46.304688 C 84.902344 46.304688 84.390625 46.253906 83.886719 46.152344 C 83.378906 46.054688 82.886719 45.910156 82.410156 45.714844 C 81.933594 45.519531 81.480469 45.285156 81.050781 45.003906 C 80.621094 44.722656 80.226562 44.40625 79.859375 44.046875 C 79.496094 43.691406 79.167969 43.304688 78.882812 42.886719 C 78.59375 42.464844 78.351562 42.023438 78.152344 41.558594 C 77.953125 41.09375 77.804688 40.613281 77.703125 40.117188 C 77.601562 39.625 77.550781 39.125 77.546875 38.621094 C 77.542969 37.601562 77.746094 36.621094 78.148438 35.679688 C 78.433594 35.015625 78.804688 34.398438 79.265625 33.835938 C 79.726562 33.273438 80.253906 32.78125 80.855469 32.363281 C 81.457031 31.945312 82.109375 31.617188 82.804688 31.375 C 83.5 31.136719 84.21875 30.992188 84.953125 30.949219 Z M 85.417969 54.042969 C 84.535156 54.042969 83.65625 53.96875 82.78125 53.824219 L 87.46875 47.628906 C 88.253906 47.460938 89.003906 47.203125 89.71875 46.847656 C 90.433594 46.492188 91.09375 46.058594 91.691406 45.539062 C 92.292969 45.019531 92.816406 44.433594 93.265625 43.785156 C 93.714844 43.136719 94.070312 42.441406 94.335938 41.703125 L 98.394531 47.398438 C 97.667969 48.421875 96.828125 49.347656 95.871094 50.175781 C 94.917969 51 93.875 51.703125 92.746094 52.28125 C 91.613281 52.859375 90.429688 53.296875 89.191406 53.597656 C 87.953125 53.894531 86.695312 54.042969 85.417969 54.042969 Z M 99.3125 45.960938 L 94.816406 39.652344 C 94.859375 39.308594 94.882812 38.964844 94.886719 38.621094 C 94.886719 36.757812 94.355469 35.050781 93.289062 33.503906 L 100.089844 33.503906 C 100.15625 33.496094 100.222656 33.484375 100.289062 33.460938 C 100.664062 34.480469 100.925781 35.523438 101.078125 36.59375 C 101.226562 37.664062 101.257812 38.738281 101.175781 39.816406 C 101.089844 40.890625 100.890625 41.949219 100.578125 42.984375 C 100.261719 44.019531 99.839844 45.011719 99.3125 45.960938 Z M 99.632812 31.945312 L 91.941406 31.945312 C 90.402344 30.492188 88.570312 29.65625 86.445312 29.4375 L 90.445312 24.015625 C 92.460938 24.679688 94.265625 25.703125 95.859375 27.078125 C 97.453125 28.453125 98.710938 30.074219 99.632812 31.945312 Z M 85.417969 23.195312 C 86.566406 23.195312 87.699219 23.316406 88.820312 23.558594 L 84.484375 29.433594 C 82.988281 29.578125 81.605469 30.046875 80.335938 30.835938 C 79.066406 31.625 78.046875 32.648438 77.277344 33.910156 L 73.308594 28.726562 C 74.046875 27.859375 74.875 27.078125 75.789062 26.390625 C 76.703125 25.703125 77.683594 25.117188 78.730469 24.640625 C 79.777344 24.160156 80.867188 23.800781 81.992188 23.558594 C 83.121094 23.3125 84.265625 23.195312 85.417969 23.195312 Z M 72.3125 30.019531 L 76.515625 35.515625 C 76.144531 36.515625 75.953125 37.554688 75.953125 38.621094 C 75.953125 40.378906 76.433594 42.003906 77.390625 43.496094 L 70.445312 43.496094 C 70.058594 42.378906 69.808594 41.234375 69.691406 40.058594 C 69.578125 38.886719 69.597656 37.714844 69.761719 36.546875 C 69.921875 35.375 70.21875 34.242188 70.648438 33.140625 C 71.082031 32.039062 71.632812 30.996094 72.3125 30.019531 Z M 72.3125 30.019531 " fill-opacity="1" fill-rule="nonzero"/></g><path fill="#ffffff" d="M 85.417969 33.503906 C 85.761719 33.503906 86.105469 33.535156 86.441406 33.601562 C 86.777344 33.667969 87.105469 33.765625 87.421875 33.894531 C 87.742188 34.023438 88.042969 34.183594 88.328125 34.371094 C 88.613281 34.554688 88.878906 34.769531 89.121094 35.003906 C 89.367188 35.242188 89.582031 35.5 89.773438 35.78125 C 89.964844 36.058594 90.128906 36.355469 90.257812 36.664062 C 90.390625 36.972656 90.492188 37.292969 90.558594 37.621094 C 90.625 37.953125 90.660156 38.285156 90.664062 38.621094 C 90.664062 38.835938 90.742188 39.019531 90.894531 39.167969 C 91.050781 39.320312 91.238281 39.398438 91.460938 39.398438 C 91.679688 39.398438 91.867188 39.320312 92.023438 39.167969 C 92.175781 39.019531 92.253906 38.835938 92.253906 38.621094 C 92.253906 38.183594 92.210938 37.75 92.121094 37.320312 C 92.035156 36.890625 91.902344 36.472656 91.730469 36.070312 C 91.558594 35.664062 91.347656 35.28125 91.097656 34.917969 C 90.851562 34.550781 90.566406 34.214844 90.25 33.90625 C 89.933594 33.597656 89.585938 33.320312 89.214844 33.074219 C 88.839844 32.832031 88.449219 32.625 88.035156 32.457031 C 87.621094 32.289062 87.191406 32.164062 86.753906 32.078125 C 86.3125 31.992188 85.867188 31.949219 85.417969 31.945312 C 85.199219 31.945312 85.011719 32.023438 84.855469 32.175781 C 84.699219 32.328125 84.621094 32.507812 84.621094 32.722656 C 84.621094 32.9375 84.699219 33.121094 84.855469 33.273438 C 85.011719 33.425781 85.199219 33.503906 85.417969 33.503906 Z M 85.417969 33.503906 " fill-opacity="1" fill-rule="nonzero"/></svg>